<svg xmlns="http://www.w3.org/2000/svg" version="1.1" xmlns:xlink="http://www.w3.org/1999/xlink" xmlns:svgjs="http://svgjs.dev/svgjs" width="1440" height="560" preserveAspectRatio="none" viewBox="0 0 1440 560"><g mask="url(&quot;#SvgjsMask1005&quot;)" fill="none"><path d="M493.52 519.99L520.42 519.99L520.42 555.68L493.52 555.68z" stroke="rgba(66, 68, 90, 1)"></path><path d="M71.12 137.15L98.18 137.15L98.18 137.28L71.12 137.28z" stroke="rgba(66, 68, 90, 1)"></path><path d="M1169.28 30.3a37.1 37.1 0 1 0-12.57 73.13z" fill="rgba(66, 68, 90, 1)"></path><path d="M702.59 478.11 a39.35 39.35 0 1 0 78.7 0 a39.35 39.35 0 1 0 -78.7 0z" fill="rgba(9, 138, 75, 1)"></path><path d="M432.06 530.66L484.57 530.66L484.57 583.17L432.06 583.17z" stroke="rgba(66, 68, 90, 1)"></path><path d="M1067.78 55.62a6.61 6.61 0 1 0-12.99-2.48z" stroke="rgba(66, 68, 90, 1)"></path><path d="M451.6 488.19a18.24 18.24 0 1 0 28.78 22.41z" fill="#d3b714"></path><path d="M69.08 142.1L84.32 142.1L84.32 157.34L69.08 157.34z" fill="rgba(9, 138, 75, 1)"></path><path d="M248.41 383.78L264.32 383.78L264.32 399.69L248.41 399.69z" stroke="rgba(66, 68, 90, 1)"></path><path d="M1256.59 459.04L1289.25 459.04L1289.25 491.7L1256.59 491.7z" stroke="#d3b714"></path><path d="M939.22 443.34L942.76 443.34L942.76 446.88L939.22 446.88z" stroke="#d3b714"></path><path d="M490.79 132.07L512.94 132.07L512.94 157.54L490.79 157.54z" fill="#d3b714"></path><path d="M1348.34 552.15 a45.45 45.45 0 1 0 90.9 0 a45.45 45.45 0 1 0 -90.9 0z" stroke="rgba(66, 68, 90, 1)"></path><path d="M840.63 358.52 a5.6 5.6 0 1 0 11.2 0 a5.6 5.6 0 1 0 -11.2 0z" stroke="#d3b714"></path><path d="M1014.02 145.23 a12.24 12.24 0 1 0 24.48 0 a12.24 12.24 0 1 0 -24.48 0z" stroke="#d3b714"></path><path d="M1104.39 111.83L1120.01 111.83L1120.01 124.48L1104.39 124.48z" stroke="#d3b714"></path><path d="M1373.66 38.33L1393.2 38.33L1393.2 45.08L1373.66 45.08z" fill="rgba(66, 68, 90, 1)"></path><path d="M601.69 295.09 a31.85 31.85 0 1 0 63.7 0 a31.85 31.85 0 1 0 -63.7 0z" stroke="rgba(66, 68, 90, 1)"></path><path d="M1246.65 545.59L1297.47 545.59L1297.47 596.41L1246.65 596.41z" fill="rgba(9, 138, 75, 1)"></path><path d="M1338.74 208.02a33.15 33.15 0 1 0-59.16 29.92z" fill="#d3b714"></path><path d="M446.96 156.28L447.8 156.28L447.8 205.03L446.96 205.03z" fill="#d3b714"></path><path d="M749.54 453.78L752.47 453.78L752.47 457.99L749.54 457.99z" fill="rgba(66, 68, 90, 1)"></path><path d="M952.78 454.28 a55.93 55.93 0 1 0 111.86 0 a55.93 55.93 0 1 0 -111.86 0z" fill="#d3b714"></path><path d="M19.96 283.96a41.21 41.21 0 1 0 78.2 26.04z" fill="rgba(66, 68, 90, 1)"></path><path d="M1211.21 554.93 a21.77 21.77 0 1 0 43.54 0 a21.77 21.77 0 1 0 -43.54 0z" fill="rgba(9, 138, 75, 1)"></path><path d="M569.33 270.94L601.9 270.94L601.9 303.51L569.33 303.51z" fill="rgba(66, 68, 90, 1)"></path><path d="M1059.49 15.92L1114.53 15.92L1114.53 44.56L1059.49 44.56z" fill="#d3b714"></path><path d="M-6.78 78.65 a9.48 9.48 0 1 0 18.96 0 a9.48 9.48 0 1 0 -18.96 0z" stroke="rgba(66, 68, 90, 1)"></path><path d="M962.02 476.7a39.68 39.68 0 1 0-58.09-54.07z" stroke="#d3b714"></path><path d="M1019.12-5.62a47.92 47.92 0 1 0 90.1 32.68z" fill="rgba(66, 68, 90, 1)"></path><path d="M1113.36 361.98a54.74 54.74 0 1 0 46.82-98.96z" fill="rgba(9, 138, 75, 1)"></path><path d="M708.3 18.25 a21.4 21.4 0 1 0 42.8 0 a21.4 21.4 0 1 0 -42.8 0z" stroke="#d3b714"></path><path d="M1314.97 527.76a39.42 39.42 0 1 0 78.76 3.4z" fill="rgba(66, 68, 90, 1)"></path></g><defs><mask id="SvgjsMask1005"><rect width="1440" height="560" fill="#ffffff"></rect></mask></defs></svg>